<svg width="139" height="123" viewBox="0 0 139 123" fill="none" xmlns="http://www.w3.org/2000/svg">
<path fill-rule="evenodd" clip-rule="evenodd" d="M97.8665 31.202C112.191 48.2048 130.463 69.8681 117.159 89.1367C103.207 109.344 74.6634 104.666 52.5708 96.8057C33.7454 90.1077 17.9741 74.798 19.3214 54.3264C20.566 35.4142 39.4583 23.9575 57.7187 18.5815C73.0399 14.0708 87.9444 19.4246 97.8665 31.202Z" fill="#FDEEFD"/>
<g filter="url(#filter0_d_3201_16744)">
<rect x="23.2241" y="8.38007" width="90.1915" height="56.2717" rx="4" transform="rotate(18.2617 23.2241 8.38007)" fill="white" stroke="#9F70F4" stroke-width="2"/>
<path fill-rule="evenodd" clip-rule="evenodd" d="M67.527 37.8417C66.5734 40.7316 63.405 42.2839 60.4502 41.3089C57.4954 40.3338 55.873 37.2007 56.8266 34.3108C57.7802 31.4209 60.9486 29.8686 63.9035 30.8436C66.8583 31.8186 68.4806 34.9518 67.527 37.8417ZM69.0557 38.3461C67.8296 42.0617 63.7559 44.0575 59.9569 42.8039C56.1578 41.5503 54.0719 37.522 55.298 33.8064C56.5241 30.0908 60.5977 28.095 64.3968 29.3486C68.1959 30.6022 70.2817 34.6305 69.0557 38.3461ZM60.9488 39.8142C63.0594 40.5107 65.3225 39.4019 66.0037 37.3377C66.6848 35.2735 65.526 33.0355 63.4154 32.3391C61.3048 31.6426 59.0417 32.7514 58.3605 34.8156C57.6794 36.8798 58.8382 39.1178 60.9488 39.8142ZM54.9845 39.4939L50.2645 43.6236L54.1375 43.8657L53.9433 47.647L58.9581 43.2594C57.1798 42.4754 55.8025 41.1185 54.9845 39.4939ZM60.4008 43.7434L61.818 50.2473L63.9152 47.0887L67.1674 49.1963L65.8467 43.1355C64.2142 43.9387 62.296 44.1918 60.4008 43.7434ZM67.3101 49.8513L61.9622 50.9092L61.9628 50.9117L67.3106 49.8537L67.3101 49.8513ZM53.4307 48.0955L49.7627 44.0626L49.7598 44.0651L53.4278 48.098L53.4307 48.0955ZM39.3702 46.1942L74.7021 57.8529L73.8518 60.4298L38.5199 48.7711L39.3702 46.1942ZM44.2116 53.5068L65.8548 60.6486L64.9438 63.4096L43.3006 56.2678L44.2116 53.5068ZM74.1915 74.8294L61.0174 70.4822L60.41 72.3229L73.5841 76.67L74.1915 74.8294ZM29.032 59.9286L42.2062 64.2758L41.5988 66.1164L28.4247 61.7693L29.032 59.9286Z" fill="url(#paint0_linear_3201_16744)"/>
</g>
<path d="M113 100.13C111.213 104.197 106.467 106.045 102.4 104.258C98.3331 102.47 96.4852 97.7244 98.2725 93.6576C100.06 89.5908 104.806 87.7429 108.872 89.5302C112.939 91.3175 114.787 96.0634 113 100.13Z" fill="#FFCC4D"/>
<path fill-rule="evenodd" clip-rule="evenodd" d="M100.035 91.0241C100.09 91.165 100.451 91.6741 100.42 92.0108C100.389 92.3473 99.8541 94.0974 100.227 94.8456C100.612 95.6162 102.983 96.4346 103.517 96.4087C104.713 96.3508 105.433 95.0389 105.91 94.4238C106.18 94.0753 106.768 94.3338 106.768 94.3338C106.768 94.3338 107.357 94.5924 107.283 95.0266C107.152 95.7946 106.674 97.2126 107.439 98.1316C107.781 98.5432 109.987 99.7368 110.816 99.4997C111.619 99.2682 112.546 97.6906 112.773 97.44C112.999 97.1895 113.619 97.1115 113.76 97.0567C113.902 97.0023 114.074 96.6108 114.018 96.4692C113.908 96.1876 111.671 94.9966 109.061 94.1739C108.54 94.0098 108.289 94.0679 107.112 93.5506C105.936 93.0337 105.808 92.8088 105.335 92.5365C102.966 91.17 100.575 90.3274 100.293 90.4366C100.152 90.4914 99.98 90.8833 100.035 91.0241Z" fill="#292F33"/>
<path d="M108.443 100.875C108.399 100.777 108.292 100.725 108.188 100.749C108.167 100.754 106.062 101.23 104.108 100.371C102.158 99.5143 101.08 97.6393 101.07 97.6206C101.018 97.5282 100.907 97.4853 100.805 97.5183C100.704 97.552 100.64 97.6528 100.654 97.7583C100.668 97.8695 101.027 100.482 103.568 101.598C106.11 102.715 108.277 101.214 108.368 101.149C108.456 101.087 108.487 100.973 108.443 100.875Z" fill="#664500"/>
<defs>
<filter id="filter0_d_3201_16744" x="0.641602" y="5.43066" width="113.181" height="91.5986" filterUnits="userSpaceOnUse" color-interpolation-filters="sRGB">
<feFlood flood-opacity="0" result="BackgroundImageFix"/>
<feColorMatrix in="SourceAlpha" type="matrix" values="0 0 0 0 0 0 0 0 0 0 0 0 0 0 0 0 0 0 127 0" result="hardAlpha"/>
<feOffset dy="2"/>
<feGaussianBlur stdDeviation="2.5"/>
<feComposite in2="hardAlpha" operator="out"/>
<feColorMatrix type="matrix" values="0 0 0 0 0.415533 0 0 0 0 0.125208 0 0 0 0 0.924792 0 0 0 0.42 0"/>
<feBlend mode="normal" in2="BackgroundImageFix" result="effect1_dropShadow_3201_16744"/>
<feBlend mode="normal" in="SourceGraphic" in2="effect1_dropShadow_3201_16744" result="shape"/>
</filter>
<linearGradient id="paint0_linear_3201_16744" x1="64.2955" y1="28.9408" x2="51.0043" y2="69.22" gradientUnits="userSpaceOnUse">
<stop stop-color="#B15EF2"/>
<stop offset="1" stop-color="#5CAEFA"/>
</linearGradient>
</defs>
</svg>
