<svg width="231" height="15" viewBox="0 0 231 15" fill="none" xmlns="http://www.w3.org/2000/svg">
<path d="M52.8962 4.68621L53.3415 3.60476L54.2887 2.76997L55.4444 2.26723H56.5149L57.6516 2.76997L58.5989 3.60476L59.0536 4.68621L59.1389 5.07512L61.0334 3.45301L60.5503 2.40949L59.0252 1.03403L57.0359 0.189737H54.9424L52.9247 1.03403L51.428 2.40949L50.6512 4.07907L50.3102 5.82457V8.57555L50.6512 10.321L51.428 11.9906L52.9247 13.3661L54.9424 14.2104H57.0548L59.0441 13.3661L60.5692 11.9906L61.0524 10.9471L59.1578 9.3155L59.0631 9.7329L58.6178 10.7764L57.6705 11.6491L56.5622 12.1329H55.4728L54.3551 11.6491L53.4078 10.7574L52.9341 9.7329L52.631 8.34789V5.97632L52.8962 4.68621ZM26.7986 7.53208L27.7459 6.08066L28.2669 4.18341L27.6891 2.1534L26.2208 0.692477L24.4304 0.227661H18.6141V13.8879H20.6886V8.4048H23.7579L26.145 13.8879H28.4564L25.8324 7.96847L26.7986 7.53208ZM25.3777 5.89098L24.4304 6.37479H20.7644V2.26723H24.1936L25.1977 2.57079L25.8892 3.24428L26.164 4.1929L25.8703 5.19844L25.3777 5.89098ZM79.3728 0.256147H76.4457L70.4683 6.65936V0.256147H68.4222V13.9732H70.5157V9.6475L72.5808 7.44668L76.9383 13.9732H79.477L74.0491 5.96683L79.3728 0.256147ZM2.61451 4.68621L3.05973 3.60476L4.00701 2.76997L5.1627 2.26723H6.23313L7.3604 2.76997L8.30768 3.60476L8.74343 4.68621L8.82868 5.07512L10.7232 3.45301L10.2401 2.40949L8.71501 1.03403L6.72571 0.189737H4.62274L2.61451 1.03403L1.11782 2.40949L0.341037 4.07907L0 5.82457V8.57555L0.341037 10.321L1.11782 11.9906L2.61451 13.3661L4.62274 14.2104H6.72571L8.71501 13.3661L10.2401 11.9906L10.7232 10.9471L8.82868 9.3155L8.72449 9.7329L8.27927 10.7764L7.33198 11.6491L6.22365 12.1329H5.1248L4.0165 11.6491L3.06921 10.7574L2.59557 9.7329L2.29244 8.34789V5.97632L2.61451 4.68621ZM39.3406 0.189737L34.32 13.9353H36.5367L37.7303 10.5013H42.4667L43.6602 13.9353H45.8769L40.951 0.218165L39.3406 0.189737ZM38.4786 8.4048L40.1553 3.66168L41.8131 8.4048H38.4786ZM97.8353 2.25773H102.174V13.9163H104.277V2.28616H108.786V0.218165H97.8353V2.25773ZM203.808 2.35257L202.482 0.996044L200.265 0.132821H195.121V13.8499H200.265L202.482 12.9772L203.808 11.6301L204.66 9.95106L205.058 8.27204V5.72967L204.66 4.06014L203.808 2.35257ZM202.984 7.94948L202.614 9.27758L202.093 10.359L201.269 11.1843L199.858 11.7819H197.253V2.21981H199.905L201.297 2.79845L202.122 3.61426L202.681 4.73363L203.031 6.06173L202.984 7.94948ZM211.443 0.132821V13.8499H220.546V11.7819H213.546V7.61748H220.546V5.5305H213.546V2.21981H220.546V0.16125L211.443 0.132821ZM123.421 0.199232V5.63483H118.012V0.227661H115.928V13.9448H118.012V7.71232H123.421V13.9543H125.524V0.218165H123.421V0.199232ZM228.75 11.7819V13.8499H230.853V11.7819H228.75ZM132.837 0.227661V13.9448H141.941V11.8863H134.94V7.71232H141.941V5.63483H134.94V2.29566H141.941V0.227661H132.837V0.227661ZM188.026 2.22924L186.501 0.853785L184.512 0.00949551H182.418L180.4 0.853785L178.904 2.22924L178.136 3.90833L177.795 5.64433V8.4048L178.136 10.1408L178.904 11.8199L180.4 13.1859L182.418 14.0396H184.512L186.501 13.1859L188.026 11.8199L188.793 10.1408L189.144 8.4048V5.63483L188.793 3.89883L188.026 2.22924ZM186.823 8.16764L186.501 9.56215L186.056 10.6056L185.108 11.4689L183.991 11.9526H182.901L181.783 11.4689L180.836 10.5772L180.363 9.56215L180.069 8.16764V5.79608L180.363 4.50597L180.817 3.42452L181.765 2.59922L182.92 2.09648H183.991L185.127 2.59922L186.075 3.42452L186.529 4.50597L186.823 5.79608V8.16764ZM162.989 4.49647L163.435 3.41503L164.382 2.58973L165.538 2.08699H166.608L167.745 2.58973L168.692 3.41503L169.137 4.49647L169.232 4.88544L171.127 3.27277L170.643 2.21981L169.128 0.853785L167.138 0H165.036L163.027 0.853785L161.521 2.21981L160.754 3.89883L160.413 5.63483V8.39531L160.754 10.1313L161.521 11.8104L163.027 13.1764L165.036 14.0301H167.138L169.128 13.1764L170.643 11.8104L171.127 10.7574L169.232 9.13526L169.137 9.55266L168.683 10.5961L167.735 11.4689L166.617 11.9432H165.528L164.42 11.4689L163.473 10.5772L163.008 9.55266L162.705 8.16764V5.79608L162.989 4.49647Z" fill="black"/>
</svg>
